<svg height="50" width="50"
     version="1.1"
     baseProfile="full"
     xmlns="http://www.w3.org/2000/svg">
    <g transform="scale(-1,1) translate(-50, 0)">
    <line x1="0" y1="25" x2="25" y2="25" style="stroke:rgb(0,0,0);stroke-width:2"></line><line x1="25" y1="25" x2="35.82531754730549" y2="31.25" style="stroke:rgb(0,0,0);stroke-width:1.4"></line><line x1="25" y1="25" x2="35.82531754730549" y2="18.75" style="stroke:rgb(0,0,0);stroke-width:1.4"></line><line x1="25" y1="25" x2="37.5" y2="25" style="stroke:rgb(0,0,0);stroke-width:1.4"></line><line x1="35.82531754730549" y1="31.25" x2="38.95031754730549" y2="36.662658773652744" style="stroke:rgb(0,0,0);stroke-width:0.9799999999999999"></line><line x1="35.82531754730549" y1="31.25" x2="41.23797632095823" y2="34.375" style="stroke:rgb(0,0,0);stroke-width:0.9799999999999999"></line><line x1="35.82531754730549" y1="18.75" x2="38.95031754730549" y2="13.33734122634726" style="stroke:rgb(0,0,0);stroke-width:0.9799999999999999"></line><line x1="35.82531754730549" y1="18.75" x2="41.23797632095823" y2="15.625" style="stroke:rgb(0,0,0);stroke-width:0.9799999999999999"></line><line x1="37.5" y1="25" x2="42.912658773652744" y2="28.125" style="stroke:rgb(0,0,0);stroke-width:0.9799999999999999"></line><line x1="37.5" y1="25" x2="42.912658773652744" y2="21.875" style="stroke:rgb(0,0,0);stroke-width:0.9799999999999999"></line><line x1="37.5" y1="25" x2="43.75" y2="25" style="stroke:rgb(0,0,0);stroke-width:0.9799999999999999"></line><line x1="38.95031754730549" y1="36.662658773652744" x2="38.95031754730549" y2="39.787658773652744" style="stroke:rgb(0,0,0);stroke-width:0.6859999999999998"></line><line x1="38.95031754730549" y1="36.662658773652744" x2="40.51281754730549" y2="39.36898816047911" style="stroke:rgb(0,0,0);stroke-width:0.6859999999999998"></line><line x1="41.23797632095823" y1="34.375" x2="42.80047632095823" y2="37.08132938682637" style="stroke:rgb(0,0,0);stroke-width:0.6859999999999998"></line><line x1="41.23797632095823" y1="34.375" x2="44.36297632095823" y2="34.375" style="stroke:rgb(0,0,0);stroke-width:0.6859999999999998"></line><line x1="41.23797632095823" y1="34.375" x2="43.9443057077846" y2="35.9375" style="stroke:rgb(0,0,0);stroke-width:0.6859999999999998"></line><line x1="38.95031754730549" y1="13.33734122634726" x2="38.95031754730549" y2="10.21234122634726" style="stroke:rgb(0,0,0);stroke-width:0.6859999999999998"></line><line x1="38.95031754730549" y1="13.33734122634726" x2="40.51281754730549" y2="10.63101183952089" style="stroke:rgb(0,0,0);stroke-width:0.6859999999999998"></line><line x1="41.23797632095823" y1="15.625" x2="44.36297632095823" y2="15.625" style="stroke:rgb(0,0,0);stroke-width:0.6859999999999998"></line><line x1="41.23797632095823" y1="15.625" x2="42.80047632095823" y2="12.91867061317363" style="stroke:rgb(0,0,0);stroke-width:0.6859999999999998"></line><line x1="41.23797632095823" y1="15.625" x2="43.9443057077846" y2="14.0625" style="stroke:rgb(0,0,0);stroke-width:0.6859999999999998"></line><line x1="42.912658773652744" y1="28.125" x2="44.475158773652744" y2="30.831329386826372" style="stroke:rgb(0,0,0);stroke-width:0.6859999999999998"></line><line x1="42.912658773652744" y1="28.125" x2="45.61898816047911" y2="29.6875" style="stroke:rgb(0,0,0);stroke-width:0.6859999999999998"></line><line x1="42.912658773652744" y1="21.875" x2="44.475158773652744" y2="19.168670613173628" style="stroke:rgb(0,0,0);stroke-width:0.6859999999999998"></line><line x1="42.912658773652744" y1="21.875" x2="45.61898816047911" y2="20.3125" style="stroke:rgb(0,0,0);stroke-width:0.6859999999999998"></line><line x1="43.75" y1="25" x2="46.45632938682637" y2="26.5625" style="stroke:rgb(0,0,0);stroke-width:0.6859999999999998"></line><line x1="43.75" y1="25" x2="46.45632938682637" y2="23.4375" style="stroke:rgb(0,0,0);stroke-width:0.6859999999999998"></line><line x1="43.75" y1="25" x2="46.875" y2="25" style="stroke:rgb(0,0,0);stroke-width:0.6859999999999998"></line><line x1="38.95031754730549" y1="39.787658773652744" x2="38.16906754730549" y2="41.14082346706593" style="stroke:rgb(0,0,0);stroke-width:0.48019999999999985"></line><line x1="38.95031754730549" y1="39.787658773652744" x2="38.95031754730549" y2="41.350158773652744" style="stroke:rgb(0,0,0);stroke-width:0.48019999999999985"></line><line x1="40.51281754730549" y1="39.36898816047911" x2="40.51281754730549" y2="40.93148816047911" style="stroke:rgb(0,0,0);stroke-width:0.48019999999999985"></line><line x1="40.51281754730549" y1="39.36898816047911" x2="41.86598224071867" y2="40.15023816047911" style="stroke:rgb(0,0,0);stroke-width:0.48019999999999985"></line><line x1="40.51281754730549" y1="39.36898816047911" x2="41.29406754730549" y2="40.7221528538923" style="stroke:rgb(0,0,0);stroke-width:0.48019999999999985"></line><line x1="42.80047632095823" y1="37.08132938682637" x2="42.80047632095823" y2="38.64382938682637" style="stroke:rgb(0,0,0);stroke-width:0.48019999999999985"></line><line x1="42.80047632095823" y1="37.08132938682637" x2="43.58172632095823" y2="38.43449408023955" style="stroke:rgb(0,0,0);stroke-width:0.48019999999999985"></line><line x1="44.36297632095823" y1="34.375" x2="45.716141014371416" y2="33.59375" style="stroke:rgb(0,0,0);stroke-width:0.48019999999999985"></line><line x1="44.36297632095823" y1="34.375" x2="45.92547632095823" y2="34.375" style="stroke:rgb(0,0,0);stroke-width:0.48019999999999985"></line><line x1="43.9443057077846" y1="35.9375" x2="44.7255557077846" y2="37.290664693413184" style="stroke:rgb(0,0,0);stroke-width:0.48019999999999985"></line><line x1="43.9443057077846" y1="35.9375" x2="45.5068057077846" y2="35.9375" style="stroke:rgb(0,0,0);stroke-width:0.48019999999999985"></line><line x1="43.9443057077846" y1="35.9375" x2="45.297470401197785" y2="36.71875" style="stroke:rgb(0,0,0);stroke-width:0.48019999999999985"></line><line x1="38.95031754730549" y1="10.21234122634726" x2="38.16906754730549" y2="8.859176532934073" style="stroke:rgb(0,0,0);stroke-width:0.48019999999999985"></line><line x1="38.95031754730549" y1="10.21234122634726" x2="38.95031754730549" y2="8.64984122634726" style="stroke:rgb(0,0,0);stroke-width:0.48019999999999985"></line><line x1="40.51281754730549" y1="10.63101183952089" x2="41.86598224071867" y2="9.84976183952089" style="stroke:rgb(0,0,0);stroke-width:0.48019999999999985"></line><line x1="40.51281754730549" y1="10.63101183952089" x2="40.51281754730549" y2="9.06851183952089" style="stroke:rgb(0,0,0);stroke-width:0.48019999999999985"></line><line x1="40.51281754730549" y1="10.63101183952089" x2="41.29406754730549" y2="9.277847146107703" style="stroke:rgb(0,0,0);stroke-width:0.48019999999999985"></line><line x1="44.36297632095823" y1="15.625" x2="45.716141014371416" y2="16.40625" style="stroke:rgb(0,0,0);stroke-width:0.48019999999999985"></line><line x1="44.36297632095823" y1="15.625" x2="45.92547632095823" y2="15.625" style="stroke:rgb(0,0,0);stroke-width:0.48019999999999985"></line><line x1="42.80047632095823" y1="12.91867061317363" x2="42.80047632095823" y2="11.35617061317363" style="stroke:rgb(0,0,0);stroke-width:0.48019999999999985"></line><line x1="42.80047632095823" y1="12.91867061317363" x2="43.58172632095823" y2="11.565505919760444" style="stroke:rgb(0,0,0);stroke-width:0.48019999999999985"></line><line x1="43.9443057077846" y1="14.0625" x2="45.5068057077846" y2="14.0625" style="stroke:rgb(0,0,0);stroke-width:0.48019999999999985"></line><line x1="43.9443057077846" y1="14.0625" x2="44.7255557077846" y2="12.709335306586814" style="stroke:rgb(0,0,0);stroke-width:0.48019999999999985"></line><line x1="43.9443057077846" y1="14.0625" x2="45.297470401197785" y2="13.28125" style="stroke:rgb(0,0,0);stroke-width:0.48019999999999985"></line><line x1="44.475158773652744" y1="30.831329386826372" x2="44.475158773652744" y2="32.39382938682637" style="stroke:rgb(0,0,0);stroke-width:0.48019999999999985"></line><line x1="44.475158773652744" y1="30.831329386826372" x2="45.256408773652744" y2="32.18449408023956" style="stroke:rgb(0,0,0);stroke-width:0.48019999999999985"></line><line x1="45.61898816047911" y1="29.6875" x2="46.40023816047911" y2="31.040664693413184" style="stroke:rgb(0,0,0);stroke-width:0.48019999999999985"></line><line x1="45.61898816047911" y1="29.6875" x2="47.18148816047911" y2="29.6875" style="stroke:rgb(0,0,0);stroke-width:0.48019999999999985"></line><line x1="45.61898816047911" y1="29.6875" x2="46.9721528538923" y2="30.46875" style="stroke:rgb(0,0,0);stroke-width:0.48019999999999985"></line><line x1="44.475158773652744" y1="19.168670613173628" x2="44.475158773652744" y2="17.606170613173628" style="stroke:rgb(0,0,0);stroke-width:0.48019999999999985"></line><line x1="44.475158773652744" y1="19.168670613173628" x2="45.256408773652744" y2="17.815505919760444" style="stroke:rgb(0,0,0);stroke-width:0.48019999999999985"></line><line x1="45.61898816047911" y1="20.3125" x2="47.18148816047911" y2="20.3125" style="stroke:rgb(0,0,0);stroke-width:0.48019999999999985"></line><line x1="45.61898816047911" y1="20.3125" x2="46.40023816047911" y2="18.959335306586816" style="stroke:rgb(0,0,0);stroke-width:0.48019999999999985"></line><line x1="45.61898816047911" y1="20.3125" x2="46.9721528538923" y2="19.53125" style="stroke:rgb(0,0,0);stroke-width:0.48019999999999985"></line><line x1="46.45632938682637" y1="26.5625" x2="47.23757938682637" y2="27.915664693413184" style="stroke:rgb(0,0,0);stroke-width:0.48019999999999985"></line><line x1="46.45632938682637" y1="26.5625" x2="47.80949408023955" y2="27.34375" style="stroke:rgb(0,0,0);stroke-width:0.48019999999999985"></line><line x1="46.45632938682637" y1="23.4375" x2="47.23757938682637" y2="22.084335306586816" style="stroke:rgb(0,0,0);stroke-width:0.48019999999999985"></line><line x1="46.45632938682637" y1="23.4375" x2="47.80949408023955" y2="22.65625" style="stroke:rgb(0,0,0);stroke-width:0.48019999999999985"></line><line x1="46.875" y1="25" x2="48.228164693413184" y2="25.78125" style="stroke:rgb(0,0,0);stroke-width:0.48019999999999985"></line><line x1="46.875" y1="25" x2="48.228164693413184" y2="24.21875" style="stroke:rgb(0,0,0);stroke-width:0.48019999999999985"></line><line x1="46.875" y1="25" x2="48.4375" y2="25" style="stroke:rgb(0,0,0);stroke-width:0.48019999999999985"></line><line x1="38.16906754730549" y1="41.14082346706593" x2="37.49248520059889" y2="41.53144846706593" style="stroke:rgb(0,0,0);stroke-width:0.3361399999999999"></line><line x1="38.16906754730549" y1="41.14082346706593" x2="37.77844254730549" y2="41.817405813772524" style="stroke:rgb(0,0,0);stroke-width:0.3361399999999999"></line><line x1="38.95031754730549" y1="41.350158773652744" x2="38.55969254730549" y2="42.02674112035934" style="stroke:rgb(0,0,0);stroke-width:0.3361399999999999"></line><line x1="38.95031754730549" y1="41.350158773652744" x2="39.34094254730549" y2="42.02674112035934" style="stroke:rgb(0,0,0);stroke-width:0.3361399999999999"></line><line x1="38.95031754730549" y1="41.350158773652744" x2="38.95031754730549" y2="42.131408773652744" style="stroke:rgb(0,0,0);stroke-width:0.3361399999999999"></line><line x1="40.51281754730549" y1="40.93148816047911" x2="40.12219254730549" y2="41.60807050718571" style="stroke:rgb(0,0,0);stroke-width:0.3361399999999999"></line><line x1="40.51281754730549" y1="40.93148816047911" x2="40.51281754730549" y2="41.71273816047911" style="stroke:rgb(0,0,0);stroke-width:0.3361399999999999"></line><line x1="41.86598224071867" y1="40.15023816047911" x2="42.64723224071867" y2="40.15023816047911" style="stroke:rgb(0,0,0);stroke-width:0.3361399999999999"></line><line x1="41.86598224071867" y1="40.15023816047911" x2="42.54256458742527" y2="40.54086316047911" style="stroke:rgb(0,0,0);stroke-width:0.3361399999999999"></line><line x1="41.29406754730549" y1="40.7221528538923" x2="41.29406754730549" y2="41.5034028538923" style="stroke:rgb(0,0,0);stroke-width:0.3361399999999999"></line><line x1="41.29406754730549" y1="40.7221528538923" x2="41.970649894012084" y2="41.1127778538923" style="stroke:rgb(0,0,0);stroke-width:0.3361399999999999"></line><line x1="41.29406754730549" y1="40.7221528538923" x2="41.68469254730549" y2="41.39873520059889" style="stroke:rgb(0,0,0);stroke-width:0.3361399999999999"></line><line x1="42.80047632095823" y1="38.64382938682637" x2="42.40985132095823" y2="39.320411733532964" style="stroke:rgb(0,0,0);stroke-width:0.3361399999999999"></line><line x1="42.80047632095823" y1="38.64382938682637" x2="42.80047632095823" y2="39.42507938682637" style="stroke:rgb(0,0,0);stroke-width:0.3361399999999999"></line><line x1="43.58172632095823" y1="38.43449408023955" x2="43.58172632095823" y2="39.21574408023955" style="stroke:rgb(0,0,0);stroke-width:0.3361399999999999"></line><line x1="43.58172632095823" y1="38.43449408023955" x2="44.25830866766483" y2="38.82511908023955" style="stroke:rgb(0,0,0);stroke-width:0.3361399999999999"></line><line x1="43.58172632095823" y1="38.43449408023955" x2="43.97235132095823" y2="39.11107642694615" style="stroke:rgb(0,0,0);stroke-width:0.3361399999999999"></line><line x1="45.716141014371416" y1="33.59375" x2="46.106766014371416" y2="32.917167653293404" style="stroke:rgb(0,0,0);stroke-width:0.3361399999999999"></line><line x1="45.716141014371416" y1="33.59375" x2="46.39272336107801" y2="33.203125" style="stroke:rgb(0,0,0);stroke-width:0.3361399999999999"></line><line x1="45.92547632095823" y1="34.375" x2="46.60205866766483" y2="34.765625" style="stroke:rgb(0,0,0);stroke-width:0.3361399999999999"></line><line x1="45.92547632095823" y1="34.375" x2="46.60205866766483" y2="33.984375" style="stroke:rgb(0,0,0);stroke-width:0.3361399999999999"></line><line x1="45.92547632095823" y1="34.375" x2="46.70672632095823" y2="34.375" style="stroke:rgb(0,0,0);stroke-width:0.3361399999999999"></line><line x1="44.7255557077846" y1="37.290664693413184" x2="44.7255557077846" y2="38.071914693413184" style="stroke:rgb(0,0,0);stroke-width:0.3361399999999999"></line><line x1="44.7255557077846" y1="37.290664693413184" x2="45.1161807077846" y2="37.96724704011978" style="stroke:rgb(0,0,0);stroke-width:0.3361399999999999"></line><line x1="45.5068057077846" y1="35.9375" x2="46.183388054491196" y2="35.546875" style="stroke:rgb(0,0,0);stroke-width:0.3361399999999999"></line><line x1="45.5068057077846" y1="35.9375" x2="46.2880557077846" y2="35.9375" style="stroke:rgb(0,0,0);stroke-width:0.3361399999999999"></line><line x1="45.297470401197785" y1="36.71875" x2="45.688095401197785" y2="37.395332346706596" style="stroke:rgb(0,0,0);stroke-width:0.3361399999999999"></line><line x1="45.297470401197785" y1="36.71875" x2="46.078720401197785" y2="36.71875" style="stroke:rgb(0,0,0);stroke-width:0.3361399999999999"></line><line x1="45.297470401197785" y1="36.71875" x2="45.97405274790438" y2="37.109375" style="stroke:rgb(0,0,0);stroke-width:0.3361399999999999"></line><line x1="38.16906754730549" y1="8.859176532934073" x2="37.49248520059889" y2="8.468551532934073" style="stroke:rgb(0,0,0);stroke-width:0.3361399999999999"></line><line x1="38.16906754730549" y1="8.859176532934073" x2="37.77844254730549" y2="8.182594186227481" style="stroke:rgb(0,0,0);stroke-width:0.3361399999999999"></line><line x1="38.95031754730549" y1="8.64984122634726" x2="39.34094254730549" y2="7.9732588796406665" style="stroke:rgb(0,0,0);stroke-width:0.3361399999999999"></line><line x1="38.95031754730549" y1="8.64984122634726" x2="38.55969254730549" y2="7.9732588796406665" style="stroke:rgb(0,0,0);stroke-width:0.3361399999999999"></line><line x1="38.95031754730549" y1="8.64984122634726" x2="38.95031754730549" y2="7.8685912263472595" style="stroke:rgb(0,0,0);stroke-width:0.3361399999999999"></line><line x1="41.86598224071867" y1="9.84976183952089" x2="42.64723224071867" y2="9.84976183952089" style="stroke:rgb(0,0,0);stroke-width:0.3361399999999999"></line><line x1="41.86598224071867" y1="9.84976183952089" x2="42.54256458742527" y2="9.45913683952089" style="stroke:rgb(0,0,0);stroke-width:0.3361399999999999"></line><line x1="40.51281754730549" y1="9.06851183952089" x2="40.12219254730549" y2="8.391929492814297" style="stroke:rgb(0,0,0);stroke-width:0.3361399999999999"></line><line x1="40.51281754730549" y1="9.06851183952089" x2="40.51281754730549" y2="8.28726183952089" style="stroke:rgb(0,0,0);stroke-width:0.3361399999999999"></line><line x1="41.29406754730549" y1="9.277847146107703" x2="41.970649894012084" y2="8.887222146107703" style="stroke:rgb(0,0,0);stroke-width:0.3361399999999999"></line><line x1="41.29406754730549" y1="9.277847146107703" x2="41.29406754730549" y2="8.496597146107703" style="stroke:rgb(0,0,0);stroke-width:0.3361399999999999"></line><line x1="41.29406754730549" y1="9.277847146107703" x2="41.68469254730549" y2="8.601264799401111" style="stroke:rgb(0,0,0);stroke-width:0.3361399999999999"></line><line x1="45.716141014371416" y1="16.40625" x2="46.106766014371416" y2="17.082832346706592" style="stroke:rgb(0,0,0);stroke-width:0.3361399999999999"></line><line x1="45.716141014371416" y1="16.40625" x2="46.39272336107801" y2="16.796875" style="stroke:rgb(0,0,0);stroke-width:0.3361399999999999"></line><line x1="45.92547632095823" y1="15.625" x2="46.60205866766483" y2="16.015625" style="stroke:rgb(0,0,0);stroke-width:0.3361399999999999"></line><line x1="45.92547632095823" y1="15.625" x2="46.60205866766483" y2="15.234375" style="stroke:rgb(0,0,0);stroke-width:0.3361399999999999"></line><line x1="45.92547632095823" y1="15.625" x2="46.70672632095823" y2="15.625" style="stroke:rgb(0,0,0);stroke-width:0.3361399999999999"></line><line x1="42.80047632095823" y1="11.35617061317363" x2="42.40985132095823" y2="10.679588266467038" style="stroke:rgb(0,0,0);stroke-width:0.3361399999999999"></line><line x1="42.80047632095823" y1="11.35617061317363" x2="42.80047632095823" y2="10.57492061317363" style="stroke:rgb(0,0,0);stroke-width:0.3361399999999999"></line><line x1="43.58172632095823" y1="11.565505919760444" x2="44.25830866766483" y2="11.174880919760444" style="stroke:rgb(0,0,0);stroke-width:0.3361399999999999"></line><line x1="43.58172632095823" y1="11.565505919760444" x2="43.58172632095823" y2="10.784255919760444" style="stroke:rgb(0,0,0);stroke-width:0.3361399999999999"></line><line x1="43.58172632095823" y1="11.565505919760444" x2="43.97235132095823" y2="10.888923573053852" style="stroke:rgb(0,0,0);stroke-width:0.3361399999999999"></line><line x1="45.5068057077846" y1="14.0625" x2="46.183388054491196" y2="14.453125" style="stroke:rgb(0,0,0);stroke-width:0.3361399999999999"></line><line x1="45.5068057077846" y1="14.0625" x2="46.2880557077846" y2="14.0625" style="stroke:rgb(0,0,0);stroke-width:0.3361399999999999"></line><line x1="44.7255557077846" y1="12.709335306586814" x2="44.7255557077846" y2="11.928085306586814" style="stroke:rgb(0,0,0);stroke-width:0.3361399999999999"></line><line x1="44.7255557077846" y1="12.709335306586814" x2="45.1161807077846" y2="12.032752959880222" style="stroke:rgb(0,0,0);stroke-width:0.3361399999999999"></line><line x1="45.297470401197785" y1="13.28125" x2="46.078720401197785" y2="13.28125" style="stroke:rgb(0,0,0);stroke-width:0.3361399999999999"></line><line x1="45.297470401197785" y1="13.28125" x2="45.688095401197785" y2="12.604667653293408" style="stroke:rgb(0,0,0);stroke-width:0.3361399999999999"></line><line x1="45.297470401197785" y1="13.28125" x2="45.97405274790438" y2="12.890625" style="stroke:rgb(0,0,0);stroke-width:0.3361399999999999"></line><line x1="44.475158773652744" y1="32.39382938682637" x2="44.084533773652744" y2="33.070411733532964" style="stroke:rgb(0,0,0);stroke-width:0.3361399999999999"></line><line x1="44.475158773652744" y1="32.39382938682637" x2="44.475158773652744" y2="33.17507938682637" style="stroke:rgb(0,0,0);stroke-width:0.3361399999999999"></line><line x1="45.256408773652744" y1="32.18449408023956" x2="45.256408773652744" y2="32.96574408023956" style="stroke:rgb(0,0,0);stroke-width:0.3361399999999999"></line><line x1="45.256408773652744" y1="32.18449408023956" x2="45.93299112035934" y2="32.57511908023956" style="stroke:rgb(0,0,0);stroke-width:0.3361399999999999"></line><line x1="45.256408773652744" y1="32.18449408023956" x2="45.647033773652744" y2="32.861076426946155" style="stroke:rgb(0,0,0);stroke-width:0.3361399999999999"></line><line x1="46.40023816047911" y1="31.040664693413184" x2="46.40023816047911" y2="31.821914693413184" style="stroke:rgb(0,0,0);stroke-width:0.3361399999999999"></line><line x1="46.40023816047911" y1="31.040664693413184" x2="46.79086316047911" y2="31.717247040119776" style="stroke:rgb(0,0,0);stroke-width:0.3361399999999999"></line><line x1="47.18148816047911" y1="29.6875" x2="47.85807050718571" y2="29.296875" style="stroke:rgb(0,0,0);stroke-width:0.3361399999999999"></line><line x1="47.18148816047911" y1="29.6875" x2="47.96273816047911" y2="29.6875" style="stroke:rgb(0,0,0);stroke-width:0.3361399999999999"></line><line x1="46.9721528538923" y1="30.46875" x2="47.3627778538923" y2="31.145332346706592" style="stroke:rgb(0,0,0);stroke-width:0.3361399999999999"></line><line x1="46.9721528538923" y1="30.46875" x2="47.7534028538923" y2="30.46875" style="stroke:rgb(0,0,0);stroke-width:0.3361399999999999"></line><line x1="46.9721528538923" y1="30.46875" x2="47.64873520059889" y2="30.859375" style="stroke:rgb(0,0,0);stroke-width:0.3361399999999999"></line><line x1="44.475158773652744" y1="17.606170613173628" x2="44.084533773652744" y2="16.929588266467036" style="stroke:rgb(0,0,0);stroke-width:0.3361399999999999"></line><line x1="44.475158773652744" y1="17.606170613173628" x2="44.475158773652744" y2="16.824920613173628" style="stroke:rgb(0,0,0);stroke-width:0.3361399999999999"></line><line x1="45.256408773652744" y1="17.815505919760444" x2="45.93299112035934" y2="17.424880919760444" style="stroke:rgb(0,0,0);stroke-width:0.3361399999999999"></line><line x1="45.256408773652744" y1="17.815505919760444" x2="45.256408773652744" y2="17.034255919760444" style="stroke:rgb(0,0,0);stroke-width:0.3361399999999999"></line><line x1="45.256408773652744" y1="17.815505919760444" x2="45.647033773652744" y2="17.13892357305385" style="stroke:rgb(0,0,0);stroke-width:0.3361399999999999"></line><line x1="47.18148816047911" y1="20.3125" x2="47.85807050718571" y2="20.703125" style="stroke:rgb(0,0,0);stroke-width:0.3361399999999999"></line><line x1="47.18148816047911" y1="20.3125" x2="47.96273816047911" y2="20.3125" style="stroke:rgb(0,0,0);stroke-width:0.3361399999999999"></line><line x1="46.40023816047911" y1="18.959335306586816" x2="46.40023816047911" y2="18.178085306586816" style="stroke:rgb(0,0,0);stroke-width:0.3361399999999999"></line><line x1="46.40023816047911" y1="18.959335306586816" x2="46.79086316047911" y2="18.282752959880224" style="stroke:rgb(0,0,0);stroke-width:0.3361399999999999"></line><line x1="46.9721528538923" y1="19.53125" x2="47.7534028538923" y2="19.53125" style="stroke:rgb(0,0,0);stroke-width:0.3361399999999999"></line><line x1="46.9721528538923" y1="19.53125" x2="47.3627778538923" y2="18.854667653293408" style="stroke:rgb(0,0,0);stroke-width:0.3361399999999999"></line><line x1="46.9721528538923" y1="19.53125" x2="47.64873520059889" y2="19.140625" style="stroke:rgb(0,0,0);stroke-width:0.3361399999999999"></line><line x1="47.23757938682637" y1="27.915664693413184" x2="47.23757938682637" y2="28.696914693413184" style="stroke:rgb(0,0,0);stroke-width:0.3361399999999999"></line><line x1="47.23757938682637" y1="27.915664693413184" x2="47.62820438682637" y2="28.592247040119776" style="stroke:rgb(0,0,0);stroke-width:0.3361399999999999"></line><line x1="47.80949408023955" y1="27.34375" x2="48.20011908023955" y2="28.020332346706592" style="stroke:rgb(0,0,0);stroke-width:0.3361399999999999"></line><line x1="47.80949408023955" y1="27.34375" x2="48.59074408023955" y2="27.34375" style="stroke:rgb(0,0,0);stroke-width:0.3361399999999999"></line><line x1="47.80949408023955" y1="27.34375" x2="48.48607642694615" y2="27.734375" style="stroke:rgb(0,0,0);stroke-width:0.3361399999999999"></line><line x1="47.23757938682637" y1="22.084335306586816" x2="47.23757938682637" y2="21.303085306586816" style="stroke:rgb(0,0,0);stroke-width:0.3361399999999999"></line><line x1="47.23757938682637" y1="22.084335306586816" x2="47.62820438682637" y2="21.407752959880224" style="stroke:rgb(0,0,0);stroke-width:0.3361399999999999"></line><line x1="47.80949408023955" y1="22.65625" x2="48.59074408023955" y2="22.65625" style="stroke:rgb(0,0,0);stroke-width:0.3361399999999999"></line><line x1="47.80949408023955" y1="22.65625" x2="48.20011908023955" y2="21.979667653293408" style="stroke:rgb(0,0,0);stroke-width:0.3361399999999999"></line><line x1="47.80949408023955" y1="22.65625" x2="48.48607642694615" y2="22.265625" style="stroke:rgb(0,0,0);stroke-width:0.3361399999999999"></line><line x1="48.228164693413184" y1="25.78125" x2="48.618789693413184" y2="26.457832346706592" style="stroke:rgb(0,0,0);stroke-width:0.3361399999999999"></line><line x1="48.228164693413184" y1="25.78125" x2="48.90474704011978" y2="26.171875" style="stroke:rgb(0,0,0);stroke-width:0.3361399999999999"></line><line x1="48.228164693413184" y1="24.21875" x2="48.618789693413184" y2="23.542167653293408" style="stroke:rgb(0,0,0);stroke-width:0.3361399999999999"></line><line x1="48.228164693413184" y1="24.21875" x2="48.90474704011978" y2="23.828125" style="stroke:rgb(0,0,0);stroke-width:0.3361399999999999"></line><line x1="48.4375" y1="25" x2="49.114082346706596" y2="25.390625" style="stroke:rgb(0,0,0);stroke-width:0.3361399999999999"></line><line x1="48.4375" y1="25" x2="49.114082346706596" y2="24.609375" style="stroke:rgb(0,0,0);stroke-width:0.3361399999999999"></line><line x1="48.4375" y1="25" x2="49.21875" y2="25" style="stroke:rgb(0,0,0);stroke-width:0.3361399999999999"></line>
    </g>
</svg>